<?xml version="1.0" encoding="utf-8"?>
<!-- Generator: Adobe Illustrator 27.4.0, SVG Export Plug-In . SVG Version: 6.00 Build 0)  -->
<svg version="1.1" id="_레이어_1" xmlns="http://www.w3.org/2000/svg" xmlns:xlink="http://www.w3.org/1999/xlink" x="0px"
	 y="0px" viewBox="0 0 98 94" style="enable-background:new 0 0 98 94;" xml:space="preserve">
<style type="text/css">
	.st0{fill:#FF33D9;fill-opacity:0.6;}
	.st1{fill:none;stroke:#000000;stroke-width:4;}
</style>
<path shape-rendering="crispEdges" class="st0" d="M93,24.3C91.9,12.7,82.1,3.7,70.2,3.7c-9.5,0-17.7,5.8-21.1,14.1
	C45.6,9.5,37.5,3.7,28,3.7c-11.9,0-21.6,9-22.8,20.6C5.1,25,5,25.8,5,26.6c0,27.8,34.2,41,44.1,59.6C59,67.6,93.2,54.5,93.2,26.6
	C93.2,25.8,93.1,25,93,24.3z"/>
<path shape-rendering="crispEdges" class="st1" d="M70.2,2.8C61,2.8,53,8,49.1,15.6C45.1,8,37.1,2.8,28,2.8
	c-12.4,0-22.5,9.4-23.7,21.4c-0.1,0.8-0.1,1.6-0.1,2.4C4.2,41,13,51.4,22.8,60.5c2.5,2.3,5,4.5,7.5,6.7l0,0c2.5,2.2,4.9,4.3,7.2,6.4
	c4.6,4.3,8.5,8.5,10.9,13l0.8,1.6l0.8-1.6c2.4-4.5,6.3-8.7,10.9-13c2.3-2.1,4.7-4.2,7.2-6.4l0,0c2.5-2.2,5-4.4,7.5-6.7
	c9.8-9.1,18.6-19.6,18.6-34c0-0.8,0-1.6-0.1-2.4C92.7,12.1,82.6,2.7,70.2,2.8L70.2,2.8L70.2,2.8z"/>
</svg>
