<?xml version="1.0" encoding="UTF-8"?>
<svg id="_레이어_1" data-name=" 레이어 1" xmlns="http://www.w3.org/2000/svg" viewBox="0 0 150 37.16">
  <path d="m13.17,32.5h1.78c1.25-3.15,2.39-5.16,7.1-11.61,3.19-4.37,4.14-6.91,4.14-9.6,0-3.34-2.96-6.07-6.23-6.07-2.39,0-4.55,1.21-5.92,3.68-1.33-2.47-3.49-3.68-5.85-3.68-3.34,0-6.23,2.73-6.23,6.07,0,2.77,1.14,5.47,4.14,9.57,4.67,6.41,5.73,8.31,7.06,11.65Zm.87-3.3c-1.06-2.2-2.69-4.82-4.9-7.78-2.2-3-3.61-5.16-4.18-6.49-.57-1.33-.87-2.54-.87-3.64,0-2.16,1.94-3.95,4.1-3.95s3.95,1.63,4.9,5.05h1.94c.87-3.15,2.73-5.05,4.93-5.05s4.1,1.78,4.1,3.95c0,1.14-.3,2.39-.91,3.72-.61,1.33-2.01,3.57-4.25,6.64-2.24,3.07-3.91,5.62-4.86,7.55ZM69.91,3.8c-.23.35-.56.78-.99,1.29-.43.51-.91,1.04-1.44,1.59-.51.53-1.02,1.05-1.56,1.56-.51.48-.99.9-1.44,1.25h-2.2v-.46c.38-.48.78-1.05,1.21-1.71.46-.66.9-1.33,1.33-2.01.43-.71.78-1.34,1.06-1.9h4.02v.38Zm18.49,29.99c8.35,0,15.03-6.68,15.03-15.03h-1.59c0,7.48-5.96,13.44-13.44,13.44s-13.44-5.96-13.44-13.44h-1.59c0,8.35,6.68,15.03,15.03,15.03ZM110.85,3.42c.28.56.62,1.19,1.02,1.9.43.68.87,1.35,1.33,2.01.48.66.91,1.23,1.29,1.71v.46h-2.24c-.43-.35-.91-.77-1.44-1.25-.53-.51-1.06-1.02-1.59-1.56-.51-.56-.97-1.09-1.4-1.59-.4-.51-.72-.94-.95-1.29v-.38h3.99Zm22.06,30.37c8.77,0,15.11-6.57,15.11-14.99s-6.53-15.07-15.11-15.07-14.96,6.34-14.96,15.07,6.34,14.99,14.96,14.99Zm-1.14-2.92l-2.2-.34V7.07l2.2-.42v24.22Zm2.32,0V6.65l2.2.42v23.46l-2.2.34Zm-6.83-1.29c-.72-.49-1.44-.99-2.16-1.44V9.46c.68-.61,1.4-1.1,2.16-1.52v21.64Zm11.31.04V7.94l2.2,1.44v18.75l-2.2,1.48Zm4.55-4.02v-13.59c1.37,2.13,2.01,4.37,2.01,6.79s-.65,4.82-2.01,6.79Zm-20.31,0c-1.33-2.05-1.94-4.29-1.94-6.79s.65-4.78,1.94-6.76v13.55Z"/>
</svg>