<?xml version="1.0" encoding="UTF-8"?>
<svg id="_레이어_1" data-name=" 레이어 1" xmlns="http://www.w3.org/2000/svg" viewBox="0 0 150 37.16">
  <path d="m17.17,34.73c8.73,0,15.05-6.54,15.05-14.93s-6.5-15.01-15.05-15.01S2.27,11.1,2.27,19.8s6.31,14.93,14.9,14.93Zm-1.13-2.91l-2.19-.34V8.11l2.19-.42v24.12Zm2.31,0V7.7l2.19.42v23.37l-2.19.34Zm-6.81-1.29c-.72-.49-1.44-.98-2.16-1.44V10.49c.68-.6,1.4-1.1,2.16-1.51v21.55Zm11.27.04V8.98l2.19,1.44v18.68l-2.19,1.47Zm4.54-4.01v-13.54c1.36,2.12,2,4.35,2,6.77s-.64,4.8-2,6.77Zm-20.23,0c-1.32-2.04-1.93-4.27-1.93-6.77s.64-4.76,1.93-6.73v13.5ZM43.24,4.86c-.23.35-.55.78-.98,1.29-.43.5-.91,1.03-1.44,1.59-.5.53-1.02,1.05-1.55,1.55-.5.48-.98.89-1.44,1.25h-2.19v-.45c.38-.48.78-1.05,1.21-1.7.45-.66.89-1.32,1.32-2,.43-.71.78-1.34,1.06-1.89h4.01v.38Zm18.42,29.87c8.32,0,14.97-6.65,14.97-14.97h-1.59c0,7.45-5.94,13.38-13.38,13.38s-13.38-5.94-13.38-13.38h-1.59c0,8.32,6.65,14.97,14.97,14.97Zm22.37-30.25c.28.55.62,1.18,1.02,1.89.43.68.87,1.35,1.32,2,.48.66.91,1.22,1.29,1.7v.45h-2.23c-.43-.35-.91-.77-1.44-1.25-.53-.5-1.06-1.02-1.59-1.55-.5-.55-.97-1.08-1.4-1.59-.4-.5-.72-.93-.95-1.29v-.38h3.97Zm50.73,28.96h1.78c1.25-3.14,2.38-5.14,7.07-11.57,3.18-4.35,4.12-6.88,4.12-9.57,0-3.33-2.95-6.05-6.2-6.05-2.38,0-4.54,1.21-5.9,3.67-1.32-2.46-3.48-3.67-5.82-3.67-3.33,0-6.2,2.72-6.2,6.05,0,2.76,1.13,5.44,4.12,9.53,4.65,6.39,5.71,8.28,7.03,11.61Zm.87-3.29c-1.06-2.19-2.68-4.8-4.88-7.75-2.19-2.99-3.59-5.14-4.16-6.47-.57-1.32-.87-2.53-.87-3.63,0-2.16,1.93-3.93,4.08-3.93s3.93,1.63,4.88,5.03h1.93c.87-3.14,2.72-5.03,4.92-5.03s4.08,1.78,4.08,3.93c0,1.13-.3,2.38-.91,3.71-.6,1.32-2,3.55-4.23,6.62-2.23,3.06-3.89,5.6-4.84,7.52Z"/>
</svg>