<?xml version="1.0" encoding="UTF-8"?><svg id="_레이어_1" xmlns="http://www.w3.org/2000/svg" viewBox="0 0 147 141.39"><defs><style>.cls-1{fill:rgba(67,255,143,.6);}.cls-2{fill:none;stroke:#000;stroke-width:3px;}</style></defs><path class="cls-1" d="m143.81,35.93c-1.88-18.5-17.5-32.93-36.49-32.93-15.22,0-28.27,9.27-33.82,22.47C67.95,12.27,54.9,3,39.68,3,20.69,3,5.07,17.43,3.19,35.93c-.13,1.23-.19,2.48-.19,3.75,0,44.56,54.69,65.6,70.5,95.32,15.81-29.72,70.5-50.76,70.5-95.32,0-1.27-.06-2.52-.19-3.75Z" shape-rendering="crispEdges"/><path class="cls-2" d="m107.32,1.5c-14.69,0-27.44,8.3-33.82,20.46C67.12,9.8,54.37,1.5,39.68,1.5,19.91,1.5,3.65,16.52,1.7,35.78c-.13,1.28-.2,2.59-.2,3.9,0,22.96,14.11,39.74,29.8,54.32,3.93,3.65,7.99,7.19,11.96,10.66l.06.06c3.96,3.45,7.83,6.83,11.47,10.22,7.32,6.82,13.55,13.57,17.38,20.77l1.32,2.49,1.32-2.49c3.83-7.2,10.06-13.95,17.38-20.77,3.63-3.39,7.51-6.76,11.47-10.22l.06-.06c3.97-3.47,8.03-7,11.96-10.66,15.69-14.58,29.8-31.37,29.8-54.33,0-1.32-.07-2.62-.2-3.9-1.96-19.25-18.21-34.28-37.98-34.28Z" shape-rendering="crispEdges"/></svg>